<svg id="Layer_1" data-name="Layer 1" xmlns="http://www.w3.org/2000/svg" viewBox="0 0 198 55"><defs><style>.cls-1{fill:#1a1a1a;fill-opacity:0.86;}</style></defs><path class="cls-1" d="M33.48,39.08c0-1.1,0-2.2,0-3.31,0-3.22.1-6.8-3.58-8.1-2.3-.82-5.08-.69-7.51-.64a8,8,0,0,0-5,2,8.06,8.06,0,0,0-1.48,3.21c1.19.1,2.31.39,3.56.41.67,0,1.59.25,2.34.31.26-.36.4-.64.61-1a2.8,2.8,0,0,1,1.81-1,3.71,3.71,0,0,1,2.48.33c.55.4.54,1,.7,1.6-.5.7-1.13.76-1.89,1-3.27,1-9.28.72-10,5.1-.36,2.09,0,3.84,1.72,5.14,3,2.2,7.68,1.4,10.32-1.07a7.74,7.74,0,0,0,.78,2.09h3.75c.54,0,1.56,0,2,0a10.39,10.39,0,0,0-.45-1.26A20.18,20.18,0,0,1,33.48,39.08ZM27.25,37.7a4.26,4.26,0,0,1-.5,2.48c-.92,1.25-3.13,2.15-4.51,1.15a1.86,1.86,0,0,1-.54-2,2.17,2.17,0,0,1,.73-.86c.91-.63,3.52-1.23,4.77-1.69h0A3.73,3.73,0,0,1,27.25,37.7Z"/><path class="cls-1" d="M69.89,44.18a16.72,16.72,0,0,1-.14-5.09c.1-2.7.45-6.08-.76-8.56-1.11-2.3-4.1-2.84-6.38-2.92-.81,0-1.48-.2-2.33-.16-2.16.14-5,.44-6.52,2.17a5.08,5.08,0,0,0-1.4,3.28c.74,0,1.46.08,2.19.19,1.23.19,2.46.29,3.67.57a1.69,1.69,0,0,1,.49-1c.9-1.13,2.24-1.13,3.56-1a2.09,2.09,0,0,1,1.32.85c0,.46,0,1,0,1.43a37.73,37.73,0,0,1-4.84,1.24c-2.23.5-5.6.93-6.63,3.31A5.62,5.62,0,0,0,52.72,44a5.4,5.4,0,0,0,4.43,1.87,12.22,12.22,0,0,0,2.77-.18,6.84,6.84,0,0,0,3.92-2.09,4.78,4.78,0,0,0,.61,1.89,46.77,46.77,0,0,0,5.08.17,3.9,3.9,0,0,1,.76.13A11.61,11.61,0,0,0,69.89,44.18Zm-6.37-4.53a2.75,2.75,0,0,1-.24.62A3.82,3.82,0,0,1,61,42.1a2.9,2.9,0,0,1-2.5-.3s-.4-.57-.48-.67c0-.51,0-.85,0-1.36,1.79-2,3.28-1.4,5.54-2.52l0,0A13.54,13.54,0,0,1,63.52,39.65Z"/><path class="cls-1" d="M52.67,27.86l0-.07c-.35-.05-1.71,0-2.13,0l-4.07-.05c-.3.75-.57,1.68-.82,2.46-.53,1.64-1.09,3.3-1.53,5-.25.91-.87,2.39-1,3.26a1,1,0,0,1,.48,0,.52.52,0,0,1-.59.2c-.41-.36-.64-2.13-.82-2.75-.75-2.5-1.49-5-2.08-7.55,0-.11-.14-.48-.26-.52-1.47-.26-5,0-6.32-.32a13.7,13.7,0,0,0,1,3.07l2.55,7.1c.57,1.56,1.22,3.07,1.71,4.66.29.92.87,2,1.07,3,1.79.15,3.63.06,5.43.21.31,0,1.25-2.7,1.37-3l2.83-6.76c.48-1.16.86-2.27,1.39-3.41l1.3-3.21A10.45,10.45,0,0,0,52.67,27.86Z"/><path class="cls-1" d="M7.78,27.11c-.36.36-.3.49-.31,1Q7.38,33.58,7.38,39l0,3.17c0,1.35.28,4.44-1.76,4.43-.34,0-.8,0-1.16-.08C4.23,47.75,4,49,3.76,50.24a1.23,1.23,0,0,1-.23.75,1.05,1.05,0,0,0,.21.47c.61,0,1.1.21,1.68.29a13.94,13.94,0,0,0,3.81.18A4.37,4.37,0,0,0,13.32,48a43.22,43.22,0,0,0,.33-7.46l0-7.82c0-1.79,0-3.63.05-5.42-1.13,0-2.27,0-3.4,0A21.38,21.38,0,0,1,7.78,27.11Z"/><path class="cls-1" d="M26,25a31.94,31.94,0,0,0,4.37,0,12.64,12.64,0,0,0,7.67-4.62c.4-.45,1.58-1.55,1.69-2.09l0-.07c-.09,0-.05,0-.12,0-1.76,1.3-3.46,1.2-5.49,1.23-2.86,0-5.28-.86-8-1.54a22.05,22.05,0,0,0-5.56-.69c-4.44.47-6.31,3.46-7.65,7.38a9.71,9.71,0,0,0-.64,1.63,17.19,17.19,0,0,1,2.82-1.9C18.53,23,22.53,24.59,26,25Z"/><path class="cls-1" d="M7.52,24a9.35,9.35,0,0,0,2,2.1,6.42,6.42,0,0,1,1.37-5.85c.43-.43.76-1,1.24-1.38,2.41-2,5.11-4,6.17-7.11a11.09,11.09,0,0,0-.78-8.08A2.27,2.27,0,0,0,17.21,3h-.07a6.23,6.23,0,0,0,0,1.13,8.08,8.08,0,0,1-.63,1.63A11.64,11.64,0,0,1,13.85,8.9c-.29.26-.62.65-.92.87-.69.49-1.32,1.06-2,1.56-1.61,1.22-4,2.74-4.89,4.59a3.05,3.05,0,0,0-.35.7,4.35,4.35,0,0,0-.37,2.7A9.94,9.94,0,0,0,7.52,24Z"/><path class="cls-1" d="M158,38.52c.85,0,1.86,0,2.71,0,4.52,0,9.16.07,13.67,0q6.34-.11,12.7-.38l4-.18a9.7,9.7,0,0,0,2.42-.24c-1.89-.13-3.79-.09-5.69-.14-.69,0-1.36-.08-2-.09q-3-.06-6-.07l-17.13-.29q-11.56-.31-23.13-.4c-1,0-2-.1-3.07-.11-1.44,0-2.93-.07-4.37,0-7.66.39-15.06,1.49-22.7.68a29.35,29.35,0,0,0-3.73.12l-3.81.19a12.3,12.3,0,0,0-2.08.14c.32.1,2.67.11,3.19.13l3.75.11c.58,0,1.2.09,1.78.09,4.47,0,9,0,13.43.08l29.44.29C153.54,38.43,155.75,38.39,158,38.52Z"/><path class="cls-1" d="M148.75,10.88c1-.8,1.47-1.93,2.35-2.8l.58-.55a2.65,2.65,0,0,1,2.06-.59A4.15,4.15,0,0,1,156,8.81a38.75,38.75,0,0,1,2.73,5.61,23.44,23.44,0,0,0,1.65,3.33,12.37,12.37,0,0,0,1.36,1.45,5.87,5.87,0,0,0,1.27,1.07c-.29-.69-.72-1.43-1.07-2.1q-.79-1.52-1.5-3.06a18,18,0,0,1-.76-1.88c-.8-2.62-3.27-9.24-6.53-9.23a2.65,2.65,0,0,0-1.8,1.15c-1.36,1.91-1.1,2.92-2.84,4.71-2.7,2.78-8.63,4.14-10.78,7.13A15.06,15.06,0,0,0,144,13.66C145.42,12.32,147.25,12.08,148.75,10.88Z"/><polygon class="cls-1" points="149.08 35.57 149.08 35.57 149.08 35.57 149.08 35.57"/><polygon class="cls-1" points="149.09 35.58 149.08 35.57 149.02 35.59 149.09 35.58"/><path class="cls-1" d="M145.79,33.46c-.79-.6-1.56-1.23-2.32-1.88A31.22,31.22,0,0,0,137,26.79a6.63,6.63,0,0,0-3-.5,5.64,5.64,0,0,0-1.35.19c-3.26,1.1-5.43,4.12-7.77,6.46-.64.64-1.23,1.16-1.89,1.75-.21.18-.45.33-.62.49l0,0a.66.66,0,0,0,.55,0c3.53-1.31,7.25-7.45,10.6-7.87a4,4,0,0,1,2.11.45c.42.18.83.4,1.24.61,3.8,2,6.91,5.59,11.11,6.89a4,4,0,0,0,1.05.28c-.29-.22-.93-.48-1.28-.7A23.38,23.38,0,0,1,145.79,33.46Z"/><path class="cls-1" d="M157.31,28.5c3.87,2.7,7.92,5.6,12.57,6.69a13.15,13.15,0,0,0,1.53.38,5.67,5.67,0,0,0-1.32-.49c-1.94-.87-3.74-2.79-5.63-3.91-1.39-.83-2.58-.63-3.72-1.5-1.64-1.23-3-3-4.5-4.31a1.82,1.82,0,0,0-1.5-.57c-1.93.26-3.51,1.78-4.85,3.06A22.17,22.17,0,0,0,148,29.76c-.15.14-.38.36-.51.5a10.47,10.47,0,0,0-.85.78,6,6,0,0,0,1-.7c.2-.14.4-.29.59-.45,1.29-.89,5-3.49,6.42-3.52C155,26.49,156.78,28.12,157.31,28.5Z"/><path class="cls-1" d="M163.48,29.09a7.27,7.27,0,0,1,1.68,0c.78.07,2.63.42,3.36.14a29,29,0,0,0,5.2-3,9.88,9.88,0,0,1,1.87-1.36,2.75,2.75,0,0,1,2.57.55,19,19,0,0,1,3.16,3.6,11.71,11.71,0,0,0,1.28,1.58,23,23,0,0,0,3.33,1.67c.73.26,1.41.62,2.13.92-.56-.58-1.24-.69-2-1.22a31.2,31.2,0,0,1-6.85-6.58c-.78-1-1.38-3.08-2.84-2.6-2.73.9-4.47,3.74-6.91,5.19C168.13,28.65,165.2,28.21,163.48,29.09Z"/><path class="cls-1" d="M158.83,42.9a6.07,6.07,0,0,0-1.3.06l-.1.17c-.21,0-.3-.19-.34-.19-.52,0-2.32-.17-2.68.13s-.46,3.3,0,3.69,2,.21,2.62.2l.43-.3a4.93,4.93,0,0,1-.08,1.23l-.1,0c-1,0-2.19,0-3.14,0a2.38,2.38,0,0,1,.14.63h2.4c2.21,0,2.21,0,2.23-2.27,0-1-.07-2.31,0-3.29Zm-1.46,3.36c-.13.08-.22.05-.39.06h-1.43a24.12,24.12,0,0,1,0-2.69c.11-.09.23-.07.38-.08.51,0,.94,0,1.45,0C157.37,44.41,157.42,45.42,157.37,46.26Z"/><path class="cls-1" d="M130.37,17.13a4.41,4.41,0,0,0,1.74-2.36c1.79.2,2,1.23,3.2,2.28a12.71,12.71,0,0,0,1.43.75,21,21,0,0,1,2.09,1.93c.09.08.4.79.5.95.36.59,1.17.83,1.77,1.21-2.65-2.85-5-6-7.91-8.61a1.31,1.31,0,0,0-.77-.31c-1.09.46-1.16,1.4-2,2.18-1.17,1-2.89,2.39-4.15,3.37-.43.33-3.48,2.13-3.57,2.28.15,0,4.82-1.77,5.16-1.95A16.28,16.28,0,0,0,130.37,17.13Z"/><path class="cls-1" d="M173,42.92c-.21,0-.23.26-.44.21l-.07-.18a9.2,9.2,0,0,0-1.42-.05c.15,1.44.07,4.09.07,5.63h1.51a6.34,6.34,0,0,1-.07-1.89l.06,0c.25.26.12.37.64.39.23,0,.51,0,.75,0s1.32.06,1.56-.21c.48-.55.49-3.2,0-3.68C175.2,42.77,173.5,42.93,173,42.92Zm1.38,3.4c-.59,0-1.19,0-1.79,0a21.88,21.88,0,0,1,0-2.71l.14-.06c.56,0,1.12,0,1.68,0,0,.06,0,.29,0,.34A15.81,15.81,0,0,1,174.37,46.32Z"/><path class="cls-1" d="M127.22,42.94c-.08.08-.14.13-.21.21s-.18-.08-.34-.23c-.8,0-1.61,0-2.41,0-.41,0-.27.24-.54.21v-.19a10.69,10.69,0,0,0-1.43,0,23.27,23.27,0,0,1,0,4.09c.53-.05,1.06,0,1.59,0a23.43,23.43,0,0,1-.06-3.47,5.36,5.36,0,0,1,1.61.07,15.3,15.3,0,0,1,0,3.33l0,.08h1.6a18.64,18.64,0,0,1-.09-3.43,4.91,4.91,0,0,1,1.71,0c0,1.08,0,2.39,0,3.46a11.22,11.22,0,0,1,1.54,0C129.58,44.53,131.64,42.34,127.22,42.94Z"/><path class="cls-1" d="M188,43a19.79,19.79,0,0,0-3.69-.07c-.72.34-.61,1.14-.6,1.78s-.14,2,.54,2.16a15.45,15.45,0,0,0,3.72,0,.94.94,0,0,0,.52-.92C188.51,45.43,188.7,43.1,188,43Zm-1,3.32c-.55,0-1.24,0-1.79,0q0-1.4,0-2.79c.48,0,1.29,0,1.82,0A25.64,25.64,0,0,1,187,46.32Z"/><path class="cls-1" d="M168.94,42.94a28.86,28.86,0,0,0-3.48,0c-.92.5-.44,2.23-.53,3.12a1.21,1.21,0,0,0,.22.7,2,2,0,0,0,.5.17,20.66,20.66,0,0,0,3.53,0,1.14,1.14,0,0,0,.51-1C169.67,45.18,170,43,168.94,42.94Zm-.75,3.33h0a14.41,14.41,0,0,1-1.78,0c0-.69,0-2.1,0-2.78.6,0,1.21,0,1.81,0C168.18,44.45,168.23,45.37,168.19,46.27Z"/><path class="cls-1" d="M160.92,23.05a35,35,0,0,1-3.4,2.3,13.09,13.09,0,0,0,5.78-2.67c.48-.37,1-.69,1.46-1.05,1.31-1,2.59-2.1,4.35-1.86s2.55,1.54,3.93,2.43a4.84,4.84,0,0,0,1.42.47,24.59,24.59,0,0,1-2.72-2.27c-1-1.18-.41-2.24-2.56-2.25-1.93.22-1.68.56-2.78,1.8-.62.7-2.75.84-3.58,1.45C162.16,21.84,161.55,22.54,160.92,23.05Z"/><path class="cls-1" d="M108.47,43.53c-.17-.84-1.32-.63-2-.63l-2.45,0a2,2,0,0,0,0,.59,29.88,29.88,0,0,1,3.14,0c0,.21,0,.46,0,.67h-1.18c-.46,0-1.48-.1-1.81.2a2.29,2.29,0,0,0,0,2.42,2.18,2.18,0,0,0,1.24.19c.42,0,.84,0,1.26,0s.38-.27.62-.22c.08.13.09.2.22.21a11,11,0,0,0,1.15,0v0C108.42,45.9,108.7,44.59,108.47,43.53Zm-1.41,2.79c-.56,0-1.23,0-1.8,0,0-.51,0-1,0-1.54h1.83C107.06,45.26,107.07,45.83,107.06,46.32Z"/><path class="cls-1" d="M120.48,43.09c-.59-.35-3.37-.16-4.2-.18a1.16,1.16,0,0,0,0,.55c.34.15,3-.2,3.14.14a.58.58,0,0,1,0,.41.35.35,0,0,1-.23.16c-.79.22-2.36-.44-2.89.39a2.57,2.57,0,0,0-.14,1.69.88.88,0,0,0,.38.57,2.66,2.66,0,0,0,1.35.15A9.29,9.29,0,0,0,119,47c.08,0,.4-.3.53-.37.1.18-.06.25.08.37a9.4,9.4,0,0,0,1.3,0v0C120.67,46.14,121.11,43.47,120.48,43.09Zm-1.18,3.22h-1.8c0-.4,0-1.23,0-1.53.56,0,1.26,0,1.84,0C119.32,45.28,119.38,45.78,119.3,46.31Z"/><path class="cls-1" d="M150.4,41.41c-.37,0-1.34,0-1.67,0a.6.6,0,0,0,.13.28,48,48,0,0,1-2.34,5.3,7.38,7.38,0,0,0,.94,0c.06-.09,0-.06,0-.16a5.54,5.54,0,0,1,.5-1.43h2.54a8,8,0,0,1,.61,1.63c.5,0,1.36,0,1.87,0a12.17,12.17,0,0,1-1-2C151.48,43.82,151,42.57,150.4,41.41Zm-1,3.24a9,9,0,0,0-1,0c.23-.37.71-1.56.91-2l.12.06c.21.57.61,1.43.85,2C150,44.64,149.61,44.65,149.36,44.65Z"/><path class="cls-1" d="M136.05,43.07a19.92,19.92,0,0,0-4.13-.16l-.13.66a13.56,13.56,0,0,1,2.64-.12c.34,0,.66.11.62.5-.09.12-.11.16-.28.19-1.7.22-3.56-.7-3.05,2,.17,1,.74.84,1.59.83a9.12,9.12,0,0,0,1.28,0c.21,0,.36-.22.53-.35l.07,0v.29a4.15,4.15,0,0,0,1.34.05v-.05C136.21,45.93,136.81,43.36,136.05,43.07Zm-1.11,3.24h-1.8a10.7,10.7,0,0,1,0-1.53c.6,0,1.21,0,1.81,0C135,45.24,135,45.84,134.94,46.31Z"/><path class="cls-1" d="M181.8,43.09a4.48,4.48,0,0,0-2.31-.16,2.32,2.32,0,0,1-.52,0c-.05,0-.07,0-.08-.06a6.83,6.83,0,0,1,0-1.5c-.48,0-1,0-1.48,0,.1,1.57,0,4,0,5.59.48,0,1,0,1.52,0a26.67,26.67,0,0,1-.06-3.48,10,10,0,0,1,1.82,0c0,.52,0,1,0,1.56s0,1.28,0,1.91a11.27,11.27,0,0,1,1.54,0C182.09,46.15,182.44,43.52,181.8,43.09Z"/><path class="cls-1" d="M194.21,44.44a6.63,6.63,0,0,0-2.93-.24v-.72a20.17,20.17,0,0,1,3.13.06l-.1-.63c-1.11,0-2.83-.06-3.89,0-.68.4-.67,1.67-.36,2.28.4.8,2.46,0,2.95.58a.61.61,0,0,1,0,.4c-.43.54-2.71,0-3,.23,0,.18,0,.37,0,.55a32.12,32.12,0,0,0,4-.1,1.37,1.37,0,0,0,.26-.2A2.75,2.75,0,0,0,194.21,44.44Z"/><path class="cls-1" d="M139.24,44.2v-.72c.89,0,1.8,0,2.7,0a1.19,1.19,0,0,0,.42,0c0-.11-.1-.3-.13-.54a14.36,14.36,0,0,0-1.62,0c-.69,0-1.54,0-2.21,0-.19.1-.46.26-.49.5-.37,2.53.5,2.13,2.48,2.12,1,0,.54.77.41.78a13,13,0,0,1-2.92,0l.06.65a29,29,0,0,0,4-.11.89.89,0,0,0,.42-.66c0-.46.12-1.29-.19-1.65C141.67,44,140,44.18,139.24,44.2Z"/><path class="cls-1" d="M144.37,21.52a2.67,2.67,0,0,1,1.84.25,27.21,27.21,0,0,1,3.62,1.82,15.35,15.35,0,0,0,3.95,1.1,24.09,24.09,0,0,0-2.48-1.36c-1.34-.29-1.92-.22-2.77-1.54-.28-.44-.76-1.79-1.51-1.55a21.72,21.72,0,0,0-6.41,2.91c-.45.28-1.26.71-1.66,1a22.15,22.15,0,0,0,4-1.33C143.5,22.53,143.72,21.71,144.37,21.52Z"/><path class="cls-1" d="M100.59,41.4a39.33,39.33,0,0,1,0,4.73c0,.09-.2.12-.29.14-.53.09-2.58-.07-2.71,0s0,0,0,.06a2.61,2.61,0,0,0,.06.68h1.5c.51,0,2.41.13,2.75-.24.68-.72.18-4.13.45-5.33Z"/><path class="cls-1" d="M114.23,42.92c-.31,1-1.11,2.29-1.45,3.34-.29-.63-1.37-2.79-1.5-3.35a10.72,10.72,0,0,0-1.65.05,4.49,4.49,0,0,1,.29.53c.52,1,1,2.07,1.48,3.1a3.2,3.2,0,0,1,.16.39h1.49c.16-.4,1.9-4.07,1.9-4l-.06,0Z"/><path class="cls-1" d="M163.73,42.9H162.5c-.39,0-.44.05-.66.35h-.08a.45.45,0,0,1,0-.28,7,7,0,0,0-1.36-.07c-.07,1.31.08,2.67,0,4.12a11,11,0,0,1,1.52,0c-.06-.66,0-1.62,0-2.32,0-.29,0-.69,0-1a15,15,0,0,1,1.9,0A4.49,4.49,0,0,1,163.73,42.9Z"/><path class="cls-1" d="M104.9,34.4c.36-.27.74-.5,1.13-.74,1.7-1,4-1.74,5.61-3a20.9,20.9,0,0,0,2.06-2.32c1.69-1.94,3.22-4.35,5.42-5.73.93-.57,1.32.29,1.91.85,1.91,1.81,4.24,4.55,6.74,5.44-.64-.55-1.2-1.13-1.79-1.72a35.61,35.61,0,0,1-2.65-2.84c-.92-1.13-1.77-2.33-2.64-3.5-.18-.24-.41-.58-.72-.62-1.74-.21-9.58,9.21-11.15,10.8a36.17,36.17,0,0,1-3,2.41,11.15,11.15,0,0,1-1.17.76c-.27.12-.74.44-.79.75L104,35C104.31,35,104.64,34.63,104.9,34.4Z"/><path class="cls-1" d="M138.06,24.86c0-.05,0-.06,0-.09a7.91,7.91,0,0,0-1.34,1l0,0A3.87,3.87,0,0,0,138.06,24.86Z"/></svg>