<svg id="Layer_1" data-name="Layer 1" xmlns="http://www.w3.org/2000/svg" viewBox="0 0 640 640"><defs><style>.cls-1{fill:#0b140a;}.cls-2{fill:#188925;}</style></defs><path class="cls-1" d="M292,404.82c-2.44-10.8-1.46-22.72-1.19-33.67q.19-11.47.19-22.95c.07-22.4.64-47.21-24.91-56.31-15.94-5.67-35.28-4.72-52.1-4.37-11.43.65-26.71,5.46-34.72,14.2-4.76,5.2-8.8,15.46-10.31,22.28,8.27.67,16.05,2.72,24.7,2.85,4.65.07,11.09,1.75,16.23,2.11,1.82-2.44,2.81-4.41,4.29-6.81,2.22-3.6,8.25-6.45,12.54-6.88,5.35-.53,12.63-1.21,17.27,2.22,3.79,2.8,3.75,6.87,4.8,11.22-3.45,4.77-7.83,5.24-13.1,6.87-22.72,7-64.49,5-69.76,35.33-2.53,14.54,0,26.69,11.95,35.71,21,15.28,53.32,9.7,71.64-7.43,1.43,5.15,2.54,9.88,5.41,14.46l26,0c3.75,0,10.76.23,14.11-.12C295.48,412.62,292.42,406.52,292,404.82Zm-79.25-18.09c-3.58-3.64-5.95-9-3.71-14a14.74,14.74,0,0,1,5-5.94c6.37-4.41,24.43-8.54,33.15-11.81h.32c.39.93.12,5.25,0,6.56-.34,5.94.32,12.16-3.45,17.24C237.72,387.46,222.38,393.7,212.79,386.73Z"/><path class="cls-1" d="M247.64,379.57l.86.21.25.46c-1.66,4.15-8.47,9.43-12.69,11.32l-1.09,0-.26-.31c.51-.8,3.5-2.1,4.91-3.26A44,44,0,0,0,247.64,379.57Z"/><path class="cls-1" d="M543.66,406.5c-3.19-11.81-1.39-23.45-1-35.28.68-18.81,3.11-42.2-5.28-59.43-7.76-16-28.46-19.68-44.32-20.26-5.62-.2-10.29-1.41-16.13-1.09-15,.93-34.83,3-45.27,15-5.37,6.2-10,14.38-9.76,22.78a148.59,148.59,0,0,1,15.21,1.32c8.54,1.32,17.07,2,25.5,3.95.51-3.4,1.21-4.48,3.37-7.16,6.28-7.82,15.56-7.81,24.74-7,4.23.38,6.36,3,9.13,5.9.11,3.2.32,6.75.17,9.91-11.27,4.11-21.89,5.95-33.64,8.59-15.46,3.47-38.82,6.47-46,23-5.18,11.88-4.39,28.33,4.11,38.56,9.64,10,16.83,12.51,30.74,13a82,82,0,0,0,19.19-1.28c12.52-2,17.87-6.3,27.24-14.53.21,2.8,2.27,11.27,4.24,13.15,1.51,1.45,30.9.88,35.25,1.17a27.59,27.59,0,0,1,5.26.92C546,414,544.65,410.21,543.66,406.5ZM464.24,390c-.25-.2-2.83-3.92-3.35-4.6-.15-3.57-.12-5.92,0-9.45,12.43-14.19,22.79-9.78,38.53-17.49l.27.24c.44,1.53.22,14-.33,16.33a16.52,16.52,0,0,1-1.68,4.39,26.2,26.2,0,0,1-16.12,12.69C474.88,393.94,470.23,393.42,464.24,390Z"/><path class="cls-1" d="M435.61,355.29l.72-.12c.31,1.33.45,1.27,1.62,2,1.66-.82,2.19-1.21,4-1l-.19.21c-6,1.52-9,3.54-13.24,8-1.13,1.37-2.32,3.37-4.15,3.42C423,363.48,432.61,357.19,435.61,355.29Z"/><path class="cls-1" d="M502.49,381.2c.69,5-15.38,18.63-20.79,15.52l.1-.1a14.82,14.82,0,0,0,6-.91c2.1-1.18,3.42-3.44,5.2-5.18C497.27,390.76,500.75,384.35,502.49,381.2Z"/><path class="cls-1" d="M290.92,290.35c8.95,2.51,33.69.41,43.85,2.2.86.29,1.65,2.84,1.83,3.59,4.13,17.68,9.26,35.06,14.41,52.47,1.27,4.28,2.91,16.57,5.73,19a3.55,3.55,0,0,0,4.11-1.39c-.8-.4-2.36-.09-3.34,0,.91-6,5.2-16.31,6.9-22.61,3.1-11.55,7-23,10.63-34.42,1.74-5.41,3.64-11.92,5.72-17.09q14.14.08,28.27.35c2.91,0,12.35-.09,14.78.28l.28.5c-.69,2.65-2.39,5.77-3.45,8.43L411.59,324c-3.72,7.91-6.35,15.63-9.68,23.67L382.26,394.6c-.82,2-7.32,21-9.48,20.8-12.49-1.1-25.26-.48-37.71-1.49-1.37-6.36-5.45-14.21-7.4-20.6-3.39-11.06-7.95-21.57-11.91-32.4l-17.71-49.29C295.92,305.54,291.16,296.26,290.92,290.35Z"/><path class="cls-1" d="M112.43,288.05c4.95.84,12.53.92,17.61,1.05q11.81.34,23.61.34c-.44,12.42-.33,25.18-.35,37.63l-.11,54.26c-.06,17.13.76,34.94-2.28,51.79-2.94,16.3-12.26,24.93-28.39,27.25-9.54,1.11-16.94.09-26.46-1.26-4-.57-7.46-1.72-11.69-2a8.24,8.24,0,0,1-1.46-3.25c1.39-1.64,1.3-3.22,1.61-5.25,1.29-8.59,3.26-17.25,4.67-25.78,2.45.23,5.64.54,8,.56,14.15.12,12.14-21.35,12.21-30.71l.17-22q0-37.69.68-75.39C110.35,291.46,109.89,290.52,112.43,288.05Z"/><path class="cls-1" d="M114.6,307.69c0-2.69-.53-13,.78-14.58.89.32.49.05,1,1.12-.4,5.8.24,12.61-.16,18,0,1.05.12,2.52.08,3.53.37,4.58.28,9.66.27,14.29-.06,23.14.41,46.38-1.25,69.47-.19,2.58-.42,7.77-1,10.12-.1,1-.54,5.77-.83,6.53l-.34-.67-.66.2-.11-.39c-.19-2.89,0-6.31-.14-9.27-.47-11-.13-21.87.41-32.82.46-6.64.77-13.28,1.15-19.92C114.69,338.42,113.47,322.45,114.6,307.69Z"/><path class="cls-1" d="M114.6,307.69c0-2.69-.53-13,.78-14.58.89.32.49.05,1,1.12-.4,5.8.24,12.61-.16,18,0,1.05.12,2.52.08,3.53-.3,3.42.33,10.92-.71,13.33l-.42.1C114.37,327,114.81,311.56,114.6,307.69Z"/><path class="cls-1" d="M116.25,312.25c-.69-1-.23-8.4-.32-10.33-1.47,2-.07,8.64-.79,9.8-.33-2.31-.47-16,.39-17.55l.88.06C116,300,116.65,306.84,116.25,312.25Z"/><path class="cls-1" d="M112.41,415.33c.44-3-.08-6.88.45-10.23.16.94,0,1,.55,1.65l.55-.1.11-1.32a23.24,23.24,0,0,1,.28,4.33c-.1,1-.54,5.77-.83,6.53l-.34-.67-.66.2Z"/><path class="cls-1" d="M112.52,415.72l.66-.2.34.67c-1.56,7.15-3.69,10.51-11,12.64a8.73,8.73,0,0,1-.57-1.24C105.19,423.82,110.51,420.7,112.52,415.72Z"/><path class="cls-1" d="M92,430.81c.81-.6.87-.88,1.63-.83l-.12,2.64a43.06,43.06,0,0,1-.88,4.82c-1.33,5.73-1.55,9.8-5.68,14.19C89.65,444.1,90.44,438.61,92,430.81Z"/><path class="cls-1" d="M102,427.59a8.73,8.73,0,0,0,.57,1.24c-3.07.51-6.41,0-8.22,1.62a18.59,18.59,0,0,0-.88,2.17l.12-2.64c-.76-.05-.82.23-1.63.83a3.9,3.9,0,0,1,.29-2.28C94.24,427.13,99.1,428.06,102,427.59Z"/><path class="cls-2" d="M201.27,219.64c10-.88,28.65,2.34,38.59,4.82,18.84,4.68,35.62,11,55.51,10.69,14.06-.22,25.86.48,38.11-8.53.49-.36.18-.28.82-.23l.17.51c-.79,3.75-9,11.36-11.74,14.47-15.49,17.54-30,27.48-53.24,32.08-5.14.75-24.75.42-30.38-.21-24.29-2.73-52.05-14.09-75.83-4.21-8.11,3.36-12.46,8.61-19.53,13.16,1-5,3-7.09,4.43-11.32C157.45,243.68,170.49,222.94,201.27,219.64Z"/><path class="cls-2" d="M185.83,225.72a3.88,3.88,0,0,1,3.19.39l.14.63c-1,1.75-8.59,5.75-11,7.51a52.66,52.66,0,0,0-7,6.37A73.24,73.24,0,0,0,162,253.89c-2.64,4.57-3.47,7-7.17,10.81-.64.59-1,1.06-1.82,1.18-.83-2.56,4.9-12.75,6.39-15.16C165.94,240.19,174.23,230.7,185.83,225.72Z"/><path class="cls-2" d="M100.42,210.32c6.31-12.79,22.79-23.39,33.94-31.83,4.64-3.51,9-7.46,13.81-10.85,2.11-1.49,4.39-4.25,6.4-6,7.14-6.37,13.61-13.26,18.16-21.77,1.33-2.51,3.93-8.58,4.38-11.34.28-1.77-.47-5.78.32-7.84l.49,0a15.65,15.65,0,0,1,2.28,4.59c8,17.25,11.6,38.12,5.4,56.12-7.4,21.59-26.09,35.23-42.83,49.35-3.34,2.82-5.65,6.6-8.62,9.55-9,8.94-13.92,28.64-9.48,40.65-6.3-4.54-9.43-8.71-14.07-14.56-7.94-10-12.93-19.72-15.17-32.46A29.87,29.87,0,0,1,98,215.22C98.59,213.92,99.46,211.26,100.42,210.32Z"/><path class="cls-2" d="M100.42,210.32c6.31-12.79,22.79-23.39,33.94-31.83,4.64-3.51,9-7.46,13.81-10.85,2.11-1.49,4.39-4.25,6.4-6,7.14-6.37,13.61-13.26,18.16-21.77,1.33-2.51,3.93-8.58,4.38-11.34.28-1.77-.47-5.78.32-7.84l.49,0a15.65,15.65,0,0,1,2.28,4.59c-2.47,1.56-1.4,2.39-1.72,5.27l.66-1.35.47-.07c1.27,4.11-1.31,12.68-3.31,16.44-10.92,20.48-41.81,38.16-59.46,54-2.6,2.34-13.22,16.87-14.27,17.12a2,2,0,0,1-1.91-.43c-.42-1.9,1.86-5.06,2.93-6.79C102.11,210.34,102,210.58,100.42,210.32Z"/><path class="cls-2" d="M100.42,210.32c6.31-12.79,22.79-23.39,33.94-31.83,4.64-3.51,9-7.46,13.81-10.85,2.11-1.49,4.39-4.25,6.4-6,7.14-6.37,13.61-13.26,18.16-21.77,1.33-2.51,3.93-8.58,4.38-11.34.28-1.77-.47-5.78.32-7.84l.49,0a15.65,15.65,0,0,1,2.28,4.59c-2.47,1.56-1.4,2.39-1.72,5.27-6.11,24.72-31.25,40.88-50.48,55.25-5,3.74-9.6,8.5-14.87,12.19-2.91,2-6.55,9-9.54,11.52C102.11,210.34,102,210.58,100.42,210.32Z"/></svg>