<svg id="Layer_1" data-name="Layer 1" xmlns="http://www.w3.org/2000/svg" viewBox="0 0 720 366"><defs><style>.cls-1,.cls-5,.cls-8{fill:#fed005;}.cls-2,.cls-3,.cls-4,.cls-6,.cls-7{fill:#f9d036;}.cls-2{fill-opacity:0.98;}.cls-4{fill-opacity:0.97;}.cls-5{fill-opacity:0.92;}.cls-6{fill-opacity:0.87;}.cls-7{fill-opacity:0.98;}.cls-8{fill-opacity:0.86;}</style></defs><path class="cls-1" d="M262.1,255.76c10.13-.42,20.57-.06,30.71,0,7.21.06,14.32.75,21.56.8q81.36.63,162.71,2.79l120.46,2q20.94.12,41.86.51c4.85.11,9.55.55,14.42.66,13.37.3,26.73,0,40.07.93-5.14,1.71-11.55,1.47-17,1.76l-28.08,1.23q-44.64,1.94-89.32,2.7c-31.73.41-64.37,0-96.13-.07-6,.12-13.08.51-19,.16-15.55-.91-31.1-.61-46.68-.66l-207-2.05q-47.25-.48-94.52-.59c-4.07,0-8.38-.48-12.5-.63l-26.35-.75c-3.66-.14-20.19-.2-22.45-1,2.48-1,11.32-.72,14.61-.92l26.79-1.38c7.23-.38,19.33-1.56,26.27-.83C156.17,266.2,208.2,258.49,262.1,255.76Z"/><path class="cls-1" d="M410.7,26.51C433.65,26.46,451,73,456.63,91.44a122.25,122.25,0,0,0,5.34,13.2q4.93,10.92,10.52,21.55c2.47,4.7,5.49,9.93,7.58,14.76-3.27-1.79-6.37-4.83-9-7.49s-7.52-7.11-9.54-10.22c-4.54-7-8.29-15.8-11.58-23.42-5.75-13.3-11.45-27.22-19.25-39.45-3.4-5.32-9.73-12.06-16.15-13.19-5.59-1-10.11,1.07-14.53,4.19-1.41,1.24-2.72,2.49-4.05,3.82-6.17,6.13-9.72,14.11-16.56,19.72C368.88,83.32,356.07,85,346,94.48c-11.19,10.51-29.07,19.86-43.74,23.39,15.11-21,56.84-30.57,75.83-50.13C390.3,55.15,388.48,48,398,34.61A18.82,18.82,0,0,1,410.7,26.51Z"/><path class="cls-1" d="M77.78,233.79c6.89-5.56,14.6-10.71,20.81-17,11.06-11.17,66.24-77.43,78.42-75.94,2.23.27,3.8,2.67,5.06,4.35,6.16,8.27,12.09,16.67,18.63,24.67a265.19,265.19,0,0,0,18.58,19.92c4.21,4.19,8.13,8.25,12.63,12.15-17.61-6.31-34-25.56-47.42-38.3-4.18-4-6.89-10-13.4-5.94-15.5,9.65-26.28,26.65-38.17,40.24-4,4.65-10.31,13.22-14.45,16.38C107.29,222.87,90.92,228,79,235.13Z"/><path class="cls-1" d="M276,183.32a46,46,0,0,1,20.76,3.52c16.49,7.68,32,21.92,45.64,33.67q8,6.83,16.31,13.22a158.23,158.23,0,0,0,14.11,9.93c2.46,1.51,7,3.35,9.07,5l-.49.1.46-.12c-1.56.18-5.69-1.45-7.4-2-29.58-9.18-51.45-34.78-78.16-48.5-2.88-1.48-5.76-3-8.72-4.3-4.76-2.11-9.57-3.79-14.85-3.12-23.53,2.95-49.75,46.11-74.56,55.35a4.76,4.76,0,0,1-3.89.13l-.12-.38c1.21-1.12,2.92-2.14,4.35-3.41,4.66-4.12,8.85-7.85,13.29-12.29,16.49-16.48,31.77-37.69,54.65-45.45C269.25,183.68,273.05,183.5,276,183.32Z"/><path class="cls-1" d="M374.43,207.68A159.88,159.88,0,0,1,387.5,194.3c9.41-9.06,20.54-19.74,34.08-21.55,4.31-.58,7.39,1.23,10.56,4,10.87,9.48,20.12,21.64,31.64,30.35,8.06,6.1,16.37,4.69,26.19,10.52,13.31,7.91,25.94,21.39,39.59,27.48l-1.47.78c-32.74-7.63-61.23-28-88.39-47.07-3.74-2.62-16.05-14.09-18.36-14.93-9.71.2-36,18.49-45.09,24.77Z"/><path class="cls-1" d="M483.07,203c12.08-6.14,32.67-3,42.15-8.14,17.11-10.17,29.39-30.14,48.57-36.49,10.26-3.4,14.51,11.41,20,18.26,13,16.17,30.56,35.2,48.18,46.32-.32,1.57,0,1.42-1,2.13-5.58-2.07-18.49-8.45-23.44-11.75-1.9-1.27-7.3-8.82-9-11.12-6.83-9.35-13.23-17.85-22.22-25.36-4.73-4-12.06-5.93-18.05-3.85-4.5,1.56-9.07,6.79-13.21,9.6-10.78,7.32-24.56,16.76-36.56,21.35-5.12,2-18.15-.52-23.63-1A56.79,56.79,0,0,0,483.07,203Z"/><path d="M450.37,300.13a3.64,3.64,0,0,1,.51.47c-.76,6.9-.21,16.06-.27,23.14-.14,15.91-.09,16-15.65,16l-16.89-.07a17.66,17.66,0,0,0-.95-4.4c6.64.38,15.26.17,22.07.17l.7-.18c.68-1.33.55-7,.56-8.66-1,.69-2,1.4-3,2.1-4.33.11-15.93.91-18.48-1.42-2.94-2.7-3-23.21.3-25.94,2.55-2.09,15.17-1.05,18.85-.9.32,0,.94,1.31,2.39,1.33l.7-1.23C442.69,299.93,448.38,300.12,450.37,300.13ZM427.3,324.07c3.36.1,6.71.13,10.06.11,1.21,0,1.79.14,2.72-.41.38-5.93,0-13,.1-19.07-3.61-.18-6.65-.14-10.24-.06a4,4,0,0,0-2.63.53C426.79,306.84,427.05,321.66,427.3,324.07Z"/><path class="cls-1" d="M264.58,89.61A9.12,9.12,0,0,1,270,91.78c20.34,18.45,37,40.54,55.63,60.6-4.26-2.68-10-4.37-12.49-8.57-.65-1.08-2.82-6.09-3.47-6.63-4.8-4.05-9.49-10.46-14.69-13.59C292.37,122,286.93,120,285,118.3c-8.45-7.39-9.92-14.62-22.51-16.07-2.22,7.61-6.2,11.73-12.25,16.66A115.08,115.08,0,0,1,232.26,131c-2.38,1.27-35.25,13.86-36.32,13.75.63-1.07,22.11-13.74,25.12-16.09,8.83-6.86,20.94-16.39,29.19-23.67C256.46,99.45,257,92.87,264.58,89.61Z"/><path d="M536.37,300.12c2.21.18,8.42-.36,10,.37l.44,1.26c1.49.33,1.61-1.55,3.09-1.49,3.64.07,15.56-1,18,1.13,3.72,3.39,3.69,22,.25,25.91-1.63,1.85-8.31,1.47-11,1.47-1.66,0-3.62.09-5.26,0-3.62-.13-2.76-.91-4.46-2.7l-.48.24c-.57,2.22-.22,11,.54,13.28l-10.65.09C536.88,328.91,537.44,310.26,536.37,300.12Zm10.69,23.95q6.32.17,12.63.1c1.06-1.2.13-14.61.42-17.1,0-.37,0-1.94,0-2.41q-5.94-.18-11.87,0l-1,.39C546.71,306.66,546.89,321.35,547.06,324.07Z"/><path d="M224.14,300.28c1.13,1,1.12,1.33,2.39,1.57a15.68,15.68,0,0,1,1.52-1.42c31.1-4.25,16.58,11.14,20.95,28.29-3,0-8.07-.18-10.83.26.36-7.54.13-16.73.14-24.39-2.76-.57-9.34-.78-12,0-.4,3.82-.5,20.6.58,24.13l-11.22.07c0-.2.07-.4.1-.6.41-3,1.06-21.62-.29-23.39-2.19-1.06-8.59-.59-11.31-.51-.34,3.58-.4,21.43.42,24.42-3.72.09-7.4-.11-11.13.19.71-7.28.92-21.57-.08-28.74,2.56.22,8.36-.37,10.07.29l0,1.34c1.9.16.89-1.41,3.81-1.52C212.86,300,218.52,300.18,224.14,300.28Z"/><path d="M629.49,300.34a139.5,139.5,0,0,1,25.93.48c5,.69,3.68,17.1,3.45,20.86-.18,2.89-.83,5.21-3.65,6.48-3.94,1.32-21.55.76-26.13-.13-4.81-.92-3.84-11.14-3.84-15.17C625.24,308.33,624.47,302.72,629.49,300.34Zm6.18,23.84c3.92,0,8.75-.13,12.61,0,.51-4,.42-15.31.22-19.56-3.71-.07-9.42.13-12.82-.09Q635.82,314.38,635.67,324.18Z"/><path d="M497,300.37a210.87,210.87,0,0,1,24.5,0c7.52.34,5.11,15.73,5.22,20.69a7.92,7.92,0,0,1-3.57,7.09c-4.06,1.05-19.91.65-24.83.3a17.44,17.44,0,0,1-3.52-1.24c-.8-1.36-1.72-3.3-1.56-4.88C493.87,316.1,490.49,303.9,497,300.37Zm6.58,23.81c1.71,0,11.85.24,12.58-.31v0c.34-6.34,0-12.83.18-19.17q-6.37-.18-12.76-.06C503.34,309.4,503.29,319.35,503.57,324.18Z"/><path class="cls-1" d="M523.14,126c15.11.11,10.86,7.56,18,15.86,4.4,5.12,13.58,11.39,19.16,16-2.82-.58-7.65-1.76-10-3.29-9.72-6.25-15-15.47-27.61-17.15-12.41-1.64-21.44,6.07-30.6,13.13-3.24,2.5-6.92,4.79-10.32,7.36-13.2,9.82-24.48,15.77-40.63,18.76,8.4-5.2,16.14-9.93,23.9-16.15,4.44-3.55,8.71-8.51,13.38-11.57,5.83-4.29,20.83-5.3,25.21-10.25C511.34,130,509.61,127.59,523.14,126Z"/><path d="M64.65,300.23l17.22-.1c5,0,13.06-1.46,14.3,4.42,1.57,7.42-.37,16.69.89,24l0,.16c-2.55,0-5.55.2-8.09,0-.91-.09-1-.61-1.54-1.52-1.7-.36-2.07,1.44-4.39,1.55-3,.13-5.88.05-8.83,0s-6.37.3-8.77-1.35c-3.38-2.92-3.13-14.33-.08-17,2.35-2.08,9.52-1.29,12.76-1.38,2.24-.06,5.81,0,8.28-.07.09-1.49.09-3.22.12-4.74-5.86-.39-16.33-.13-22.09.2A13.09,13.09,0,0,1,64.65,300.23Zm8.89,24c4,0,8.74-.13,12.7,0,0-3.45,0-7.45.2-10.85H73.59C73.52,317,73.5,320.58,73.54,324.19Z"/><path d="M151.11,300.19c5.78.11,25.37-1.23,29.49,1.25,4.47,2.69,1.39,21.49,3,27l.09.3a86.91,86.91,0,0,1-9.13,0c-1-.86.13-1.38-.6-2.65-.88.54-3.17,2.53-3.72,2.6a67.57,67.57,0,0,1-8.3.09c-2.91,0-6.91.5-9.48-1.05a6.18,6.18,0,0,1-2.66-4c-.77-3.35-.93-8.92.95-11.86,3.75-5.87,14.83-1.23,20.38-2.78a2.42,2.42,0,0,0,1.59-1.09,4.15,4.15,0,0,0,.24-2.88c-.88-2.4-19.74,0-22.14-1C150.37,303,150.87,301.39,151.11,300.19Zm8.56,24,12.67-.08c.57-3.7.13-7.27.53-10.77-4,0-9-.12-13,.1C159.43,315.51,159.94,321.33,159.67,324.18Z"/><path d="M379.29,289.49c2.34.25,9.16.14,11.8.16,4.1,8.15,7.57,16.91,11.41,25.21,1.84,4,4.42,10.69,6.95,13.95-3.64-.14-9.64-.17-13.2.08A56,56,0,0,0,392,317.42q-8.92.1-17.86,0c-1.09,2.48-3.46,7.48-3.54,10.11,0,.67.18.43-.25,1.12a62.34,62.34,0,0,1-6.56.14c2.13-3.75,16.64-34.75,16.44-37.28A4.78,4.78,0,0,1,379.29,289.49Zm-2.87,23.09a63.61,63.61,0,0,1,7.31-.17c1.8,0,4.16-.08,5.92.07-1.68-3.74-4.5-9.79-6-13.79l-.8-.41C381.45,301.58,378.06,310,376.42,312.58Z"/><path d="M261.07,300.18c6.5.14,23.76-1,29.05,1.1s1.17,20.12,3.37,27.07l.11.34c-1.89,0-8.44.55-9.46-.39l-.05-2-.5-.1c-1.16.93-2.25,2.31-3.72,2.47a74.86,74.86,0,0,1-9,.13c-6,.08-10,.84-11.23-5.85-3.56-19,9.51-12.5,21.51-14.09,1.17-.16,1.32-.45,1.91-1.29.33-2.77-1.94-3.81-4.3-3.57-5.42.56-13.51-.86-18.58.87Zm8.57,24,12.67-.06c.1-3.3.12-7.54.37-10.73-4.24-.05-8.5-.15-12.73.06C269.48,314.76,269.68,322.08,269.64,324.17Z"/><path d="M581,289.58c3.36.1,7,0,10.39.05,0,3.25-.63,7.39.06,10.55.07.35.2.39.57.45a17.7,17.7,0,0,0,3.71-.31c4.27-.34,12.6-1.31,16.21,1.13,4.52,3.06,2,21.55,3,27.35a79.65,79.65,0,0,0-10.84.18c.23-4.49.21-8.94.23-13.43q0-5.49-.07-11c-3.08-.72-9.44-.37-12.82-.27-.29,4.43-.37,20.65.42,24.43-3.42,0-7.35-.12-10.72.18C581.18,317.35,581.7,300.64,581,289.58Z"/><path d="M672.53,300.31c7.48-.54,19.6-.15,27.36-.13l.71,4.41c-3.42-.92-17.79-.53-22-.38v5c6.2-.18,15.44-1.13,20.66,1.7,2,3.77,2.45,11.82.07,15.67a8.75,8.75,0,0,1-1.88,1.47c-3.92,1.13-22.78.67-28,.66-.12-1.24-.15-2.57-.21-3.82,2.33-2,18.33,2.11,21.36-1.67a3.88,3.88,0,0,0,.21-2.76c-3.46-4.39-18,1.52-20.8-4.09C667.84,312.11,667.76,303.12,672.53,300.31Z"/><path d="M306.63,300.31c4.73-.35,10.75-.1,15.54-.18,2.56,0,9.16-.14,11.45.24.17,1.74.87,3,.86,3.82a9.64,9.64,0,0,1-2.94.08c-6.28-.2-12.69-.38-19,0v5c5.19-.12,17.08-1.8,20.68,2.43,2.18,2.57,1.5,8.4,1.31,11.61-.13,2.09-1.34,3.48-2.94,4.69-4.16,1.25-22.79.75-28.19.73l-.46-4.54c4.21.93,16.18.66,20.59.08.87-.12,4-5.55-2.88-5.51-13.95.08-20.11,2.87-17.48-14.93C303.45,302.19,305.36,301.06,306.63,300.31Z"/><path class="cls-1" d="M367.3,140.71c5.28-1.63,8.63,7.81,10.61,10.92,6,9.26,10.07,8.84,19.48,10.85,2.48.53,14.43,7.8,17.44,9.56-7-.81-21.5-4.5-27.78-7.72-9.29-4.77-15.28-9.22-25.48-12.8-4.29-1.71-8.19-3.19-12.92-1.76s-6.13,7.08-10.16,9.11c-8.48,4.28-18.8,6.81-27.94,9.39,2.76-2.09,8.47-5.12,11.64-7C337.68,151.89,349.65,145.13,367.3,140.71Z"/><path d="M40.69,289.6H52.8C50.94,298,54.44,322,49.65,327.08c-2.42,2.58-15.73,1.68-19.33,1.64s-7,0-10.54.06a17.83,17.83,0,0,1-.45-4.78c.13-.13.21-.34.38-.4.88-.29,15.28.82,19,.2a3.26,3.26,0,0,0,2.08-.93C41.51,321.76,41.37,292.38,40.69,289.6Z"/><path d="M141.32,300.09l.39.21c0-.21-12.2,25.6-13.32,28.43q-5.25,0-10.52.09a19.85,19.85,0,0,0-1.1-2.72c-3.53-7.25-6.75-14.69-10.46-21.86a35,35,0,0,0-2-3.71c.66-.56,9.92-.34,11.63-.34.94,3.94,8.49,19.15,10.57,23.55,2.34-7.41,8-16.2,10.17-23.51Z"/><path d="M484.81,300.08a28.92,28.92,0,0,0,.07,5.81,100.35,100.35,0,0,0-13.33-.3c.15,2,.12,4.81.17,6.84,0,4.89-.24,11.64.18,16.31a79.34,79.34,0,0,0-10.72.27c.81-10.19-.27-19.76.23-29,2.47.27,8.17-.37,9.55.47a3.81,3.81,0,0,0,0,2l.58,0c1.57-2.08,1.89-2.48,4.62-2.45C479,300.14,481.91,300.17,484.81,300.08Z"/><path class="cls-2" d="M642,222.9c5.25,3.74,10,4.5,14,8.59-5-2.13-9.8-4.67-15-6.46C642,224.32,641.66,224.47,642,222.9Z"/><path class="cls-3" d="M71,240.31c-1.84,1.67-4.18,4.23-6.62,4.53l-.39-.39c.35-2.23,3.66-4.44,5.54-5.33A3.29,3.29,0,0,1,71,240.31Z"/><path class="cls-4" d="M69.56,239.12a79,79,0,0,0,8.22-5.33L79,235.13c-2.7,1.67-5.38,3.29-7.93,5.18A3.29,3.29,0,0,0,69.56,239.12Z"/><path class="cls-5" d="M304,172.61c.21.2.14.24.23.62a26.93,26.93,0,0,1-9.44,6.59l-.23-.22C294.9,178.41,302.46,173.66,304,172.61Z"/><path class="cls-6" d="M529.56,245.09a43.22,43.22,0,0,1,9.25,3.44,83.51,83.51,0,0,1-10.72-2.66Z"/><path class="cls-7" d="M374.43,207.68l1.82,1c-1.38,1.07-2.76,2.12-4.16,3.15l-1.21-.57C371.77,210.21,373.43,208.67,374.43,207.68Z"/><path class="cls-8" d="M364.92,216.73a64.5,64.5,0,0,1,6-5.51l1.21.57A52.18,52.18,0,0,1,364.92,216.73Z"/></svg>